<?xml version="1.0" standalone="no"?>
<!DOCTYPE svg PUBLIC "-//W3C//DTD SVG 20010904//EN"
 "http://www.w3.org/TR/2001/REC-SVG-20010904/DTD/svg10.dtd">
<svg version="1.0" xmlns="http://www.w3.org/2000/svg"
 width="100.000000pt" height="100.000000pt" viewBox="0 0 100.000000 100.000000"
 preserveAspectRatio="xMidYMid meet">

<g transform="translate(0.000000,100.000000) scale(0.100000,-0.100000)"
fill="#000000" stroke="none">
<path d="M708 808 c37 -40 24 -86 -29 -103 -11 -4 -18 -9 -16 -12 12 -11 67
29 73 54 8 30 -12 74 -36 81 -10 3 -7 -4 8 -20z"/>
<path d="M575 758 c11 -6 31 -20 45 -32 14 -11 11 -6 -7 12 -18 17 -38 32 -45
32 -7 0 -4 -6 7 -12z"/>
<path d="M509 739 c-15 -15 -20 -30 -17 -53 2 -18 -2 -38 -9 -44 -17 -16 -63
-14 -93 3 -32 18 -113 19 -148 1 -15 -8 -37 -25 -48 -38 -25 -27 -48 -92 -40
-113 2 -7 0 -56 -6 -108 -17 -153 4 -207 81 -207 39 0 63 19 96 74 8 14 15 15
41 6 64 -22 144 42 131 106 -3 16 0 24 9 24 9 0 14 -12 14 -33 0 -66 66 -115
131 -96 28 8 36 6 44 -7 32 -53 58 -74 92 -74 86 0 98 35 82 233 -14 162 -25
192 -81 227 -39 24 -121 26 -158 5 -55 -31 -130 -6 -130 44 0 31 8 44 35 59
11 6 14 12 8 12 -7 0 -22 -9 -34 -21z m-118 -122 c46 -30 67 -91 53 -146 -10
-35 -8 -42 10 -60 29 -29 27 -88 -3 -112 -47 -38 -122 -12 -133 44 -2 12 -19
24 -42 32 -63 22 -88 55 -94 119 -3 41 0 62 12 81 42 65 135 84 197 42z m132
16 c-7 -2 -19 -2 -25 0 -7 3 -2 5 12 5 14 0 19 -2 13 -5z m248 -8 c65 -34 89
-128 49 -193 -18 -29 -50 -50 -102 -66 -10 -3 -18 -13 -18 -23 0 -31 -40 -63
-81 -63 -67 0 -101 70 -60 122 16 20 19 35 14 80 -4 40 -1 63 11 87 33 64 121
90 187 56z m-201 -19 c0 -2 -7 -20 -16 -41 -9 -22 -14 -58 -12 -89 l3 -51 -35
0 -35 0 3 55 c2 39 -3 66 -16 93 l-20 37 64 0 c35 0 64 -2 64 -4z m-313 -255
c46 -19 57 -53 33 -100 -27 -53 -66 -67 -102 -34 -15 13 -18 32 -18 105 l0 90
29 -24 c15 -14 42 -30 58 -37z m593 -31 c0 -84 -1 -90 -25 -106 -35 -23 -69
-11 -94 32 -30 50 -18 82 40 110 25 12 51 29 58 38 7 9 15 16 17 16 2 0 4 -40
4 -90z"/>
<path d="M293 583 c-7 -2 -13 -16 -13 -29 0 -19 -5 -24 -25 -24 -20 0 -25 -5
-25 -25 0 -20 5 -25 25 -25 20 0 25 -5 25 -26 0 -22 4 -25 28 -22 19 2 28 9
30 25 2 14 11 23 25 25 30 4 30 42 0 46 -14 2 -23 10 -23 21 0 17 -18 42 -29
40 -4 0 -12 -3 -18 -6z"/>
<path d="M372 378 c-15 -15 -15 -51 0 -66 15 -15 51 -15 66 0 28 28 7 78 -33
78 -12 0 -26 -5 -33 -12z"/>
<path d="M674 586 c-12 -31 0 -51 31 -51 27 0 30 3 30 30 0 25 -4 30 -28 33
-17 2 -29 -2 -33 -12z m54 -17 c4 -19 -27 -34 -41 -20 -14 14 0 43 20 39 10
-2 19 -10 21 -19z"/>
<path d="M614 526 c-12 -31 0 -51 31 -51 27 0 30 3 30 30 0 25 -4 30 -28 33
-17 2 -29 -2 -33 -12z"/>
<path d="M734 526 c-12 -31 0 -51 31 -51 27 0 30 3 30 30 0 25 -4 30 -28 33
-17 2 -29 -2 -33 -12z m45 -32 c-9 -11 -15 -12 -25 -3 -11 9 -12 15 -3 25 9
11 15 12 25 3 11 -9 12 -15 3 -25z"/>
<path d="M674 466 c-12 -31 0 -51 31 -51 27 0 30 3 30 30 0 25 -4 30 -28 33
-17 2 -29 -2 -33 -12z m54 -17 c4 -19 -19 -31 -38 -19 -18 11 -4 42 17 38 10
-2 19 -10 21 -19z"/>
<path d="M592 378 c-15 -15 -15 -51 0 -66 15 -15 51 -15 66 0 28 28 7 78 -33
78 -12 0 -26 -5 -33 -12z"/>
</g>
</svg>
